#N canvas 284 60 647 269 10;
#X obj 52 12 inlet;
#X obj 122 12 inlet;
#X obj 192 12 inlet;
#X obj 262 12 inlet;
#X obj 332 12 inlet;
#X obj 402 12 inlet;
#X obj 472 12 inlet;
#X obj 542 12 inlet;
#X obj 554 202 outlet;
#X obj 79 92 sel 1;
#X msg 79 112 1;
#X msg 109 112 0;
#X msg 32 112 0;
#X obj 149 92 sel 1;
#X msg 179 112 0;
#X msg 149 112 2;
#X obj 219 92 sel 1;
#X msg 249 112 0;
#X msg 219 112 4;
#X obj 289 92 sel 1;
#X msg 319 112 0;
#X msg 289 112 8;
#X obj 359 92 sel 1;
#X msg 389 112 0;
#X obj 429 92 sel 1;
#X msg 459 112 0;
#X obj 499 92 sel 1;
#X msg 529 112 0;
#X obj 569 92 sel 1;
#X msg 599 112 0;
#X obj 52 42 t b f;
#X msg 32 92 bang;
#X obj 122 42 t b f;
#X obj 192 42 t b f;
#X obj 262 42 t b f;
#X obj 332 42 t b f;
#X obj 402 42 t b f;
#X obj 472 42 t b f;
#X obj 542 42 t b f;
#X msg 359 112 16;
#X msg 429 112 32;
#X msg 499 112 64;
#X msg 569 112 128;
#X obj 64 172 +;
#X obj 134 172 +;
#X obj 204 172 +;
#X obj 274 172 +;
#X obj 344 172 +;
#X obj 414 172 +;
#X obj 484 172 +;
#X obj 554 172 +;
#X text 31 202 This module takes an 8-bit sequence of binary digits
\, one through each inlet \, and converts them to a single decimal
number, f 66;
#X connect 0 0 30 0;
#X connect 1 0 32 0;
#X connect 2 0 33 0;
#X connect 3 0 34 0;
#X connect 4 0 35 0;
#X connect 5 0 36 0;
#X connect 6 0 37 0;
#X connect 7 0 38 0;
#X connect 9 0 10 0;
#X connect 9 1 11 0;
#X connect 10 0 43 1;
#X connect 11 0 43 1;
#X connect 12 0 43 0;
#X connect 13 0 15 0;
#X connect 13 1 14 0;
#X connect 14 0 44 1;
#X connect 15 0 44 1;
#X connect 16 0 18 0;
#X connect 16 1 17 0;
#X connect 17 0 45 1;
#X connect 18 0 45 1;
#X connect 19 0 21 0;
#X connect 19 1 20 0;
#X connect 20 0 46 1;
#X connect 21 0 46 1;
#X connect 22 0 39 0;
#X connect 22 1 23 0;
#X connect 23 0 47 1;
#X connect 24 0 40 0;
#X connect 24 1 25 0;
#X connect 25 0 48 1;
#X connect 26 0 41 0;
#X connect 26 1 27 0;
#X connect 27 0 49 1;
#X connect 28 0 42 0;
#X connect 28 1 29 0;
#X connect 29 0 50 1;
#X connect 30 0 31 0;
#X connect 30 1 9 0;
#X connect 31 0 12 0;
#X connect 32 0 31 0;
#X connect 32 1 13 0;
#X connect 33 0 31 0;
#X connect 33 1 16 0;
#X connect 34 0 31 0;
#X connect 34 1 19 0;
#X connect 35 0 31 0;
#X connect 35 1 22 0;
#X connect 36 0 31 0;
#X connect 36 1 24 0;
#X connect 37 0 31 0;
#X connect 37 1 26 0;
#X connect 38 0 31 0;
#X connect 38 1 28 0;
#X connect 39 0 47 1;
#X connect 40 0 48 1;
#X connect 41 0 49 1;
#X connect 42 0 50 1;
#X connect 43 0 44 0;
#X connect 44 0 45 0;
#X connect 45 0 46 0;
#X connect 46 0 47 0;
#X connect 47 0 48 0;
#X connect 48 0 49 0;
#X connect 49 0 50 0;
#X connect 50 0 8 0;
