#N canvas 0 22 510 455 10;
#X obj 12 42 % 2;
#X obj 62 36 / 2;
#X obj 62 72 % 2;
#X obj 112 66 / 2;
#X obj 112 102 % 2;
#X obj 162 96 / 2;
#X obj 162 132 % 2;
#X obj 212 126 / 2;
#X floatatom 22 282 4 0 255 0 - - -, f 4;
#X floatatom 72 282 4 0 255 0 - - -, f 4;
#X floatatom 122 282 4 0 255 0 - - -, f 4;
#X floatatom 172 282 4 0 255 0 - - -, f 4;
#X floatatom 222 282 4 0 255 0 - - -, f 4;
#X floatatom 272 282 4 0 255 0 - - -, f 4;
#X floatatom 322 282 4 0 255 0 - - -, f 4;
#X floatatom 372 282 4 0 255 0 - - -, f 4;
#X obj 212 162 % 2;
#X obj 262 156 / 2;
#X obj 262 192 % 2;
#X obj 312 186 / 2;
#X obj 312 222 % 2;
#X obj 362 216 / 2;
#X obj 362 252 % 2;
#X obj 12 6 inlet;
#X obj 12 312 outlet;
#X obj 62 312 outlet;
#X obj 112 312 outlet;
#X obj 162 312 outlet;
#X obj 212 312 outlet;
#X obj 262 312 outlet;
#X obj 312 312 outlet;
#X obj 362 312 outlet;
#X text 12 342 This module takes a single decimal number and converts
them to an 8-bit sequence of binary digits \, one from each outlet
;
#X connect 0 0 8 0;
#X connect 0 0 24 0;
#X connect 1 0 2 0;
#X connect 1 0 3 0;
#X connect 2 0 9 0;
#X connect 2 0 25 0;
#X connect 3 0 4 0;
#X connect 3 0 5 0;
#X connect 4 0 10 0;
#X connect 4 0 26 0;
#X connect 5 0 6 0;
#X connect 5 0 7 0;
#X connect 6 0 11 0;
#X connect 6 0 27 0;
#X connect 7 0 16 0;
#X connect 7 0 17 0;
#X connect 16 0 12 0;
#X connect 16 0 28 0;
#X connect 17 0 18 0;
#X connect 17 0 19 0;
#X connect 18 0 13 0;
#X connect 18 0 29 0;
#X connect 19 0 20 0;
#X connect 19 0 21 0;
#X connect 20 0 14 0;
#X connect 20 0 30 0;
#X connect 21 0 22 0;
#X connect 22 0 15 0;
#X connect 22 0 31 0;
#X connect 23 0 1 0;
#X connect 23 0 0 0;
