#N canvas 730 35 450 300 10;
#X obj 81 112 pow 2;
#X obj 62 49 t b b f;
#X msg 81 82 2;
#X obj 12 172 *;
#X obj 228 92 t b b f;
#X msg 247 122 0.5;
#X obj 247 152 pow 2;
#X obj 232 182 *;
#X obj 12 212 spigot 0;
#X obj 232 212 spigot 0;
#X obj 189 32 moses 0;
#X obj 228 62 * -1;
#X obj 112 212 expr $f1 * -1 + 1;
#X msg 209 122 0;
#X msg 169 122 1;
#X obj 12 92 list;
#X obj 12 112 list trim;
#X obj 292 212 t f;
#X obj 72 212 t f;
#X msg 12 142 \$1;
#X obj 12 242 t f;
#X obj 33 9 inlet;
#X obj 189 9 inlet;
#X obj 12 272 outlet;
#X connect 0 0 3 1;
#X connect 1 0 15 0;
#X connect 1 1 2 0;
#X connect 1 2 0 1;
#X connect 2 0 0 0;
#X connect 3 0 8 0;
#X connect 4 0 15 0;
#X connect 4 1 5 0;
#X connect 4 2 6 1;
#X connect 5 0 6 0;
#X connect 6 0 7 1;
#X connect 7 0 9 0;
#X connect 8 0 20 0;
#X connect 9 0 20 0;
#X connect 10 0 14 0;
#X connect 10 0 1 0;
#X connect 10 1 13 0;
#X connect 10 1 11 0;
#X connect 11 0 4 0;
#X connect 12 0 17 0;
#X connect 13 0 18 0;
#X connect 14 0 18 0;
#X connect 15 0 16 0;
#X connect 16 0 19 0;
#X connect 17 0 9 1;
#X connect 18 0 8 1;
#X connect 18 0 12 0;
#X connect 19 0 3 0;
#X connect 19 0 7 0;
#X connect 20 0 23 0;
#X connect 21 0 15 1;
#X connect 22 0 10 0;
