#N canvas 393 83 886 629 10;
#X obj 372 59 serialosc;
#X obj 351 76 bng 15 250 50 0 empty empty empty 17 7 0 10 -262144 -1
-1;
#N canvas 31 16 1074 835 petscii-character-maps 1;
#X text 12 135 !;
#X text 12 155 ";
#X text 12 175 #;
#X text 12 195 $;
#X text 12 215 %;
#X text 12 235 &;
#X text 12 255 ';
#X text 12 275 (;
#X text 12 295 );
#X text 12 315 *;
#X obj 32 13 key;
#X text 12 335 +;
#X text 12 355 \,;
#X text 12 375 -;
#X text 12 395 .;
#X text 12 415 /;
#X text 392 115 0;
#X text 392 135 1;
#X text 392 155 2;
#X text 392 175 3;
#X text 392 195 4;
#X text 392 215 5;
#X text 392 235 6;
#X text 392 255 7;
#X text 392 275 8;
#X text 392 295 9;
#X text 392 315 :;
#X text 392 335 \;;
#X text 392 355 <;
#X text 392 375 =;
#X text 392 395 >;
#X text 392 415 ?;
#X msg 412 115 /monome/grid/led/map 0 0 60 102 118 110 102 102 60 0
;
#X msg 412 135 /monome/grid/led/map 0 0 24 24 28 24 24 24 126 0;
#X msg 412 155 /monome/grid/led/map 0 0 60 102 96 48 12 6 126 0;
#X obj 32 805 outlet;
#X obj 412 445 s 48-62;
#X obj 32 485 r 33-47;
#X obj 82 485 r 48-62;
#X msg 412 175 /monome/grid/led/map 0 0 60 102 96 56 96 102 60 0;
#X msg 412 195 /monome/grid/led/map 0 0 96 112 120 102 254 96 96 0
;
#X msg 412 215 /monome/grid/led/map 0 0 126 6 62 96 96 102 60 0;
#X msg 412 235 /monome/grid/led/map 0 0 60 102 6 62 102 102 60 0;
#X msg 412 255 /monome/grid/led/map 0 0 126 102 48 24 24 24 24 0;
#X msg 412 275 /monome/grid/led/map 0 0 60 102 102 60 102 102 60 0
;
#X msg 412 295 /monome/grid/led/map 0 0 60 102 102 124 96 102 60 0
;
#X obj 52 715 keyup;
#X msg 52 735 /monome/grid/led/all 0;
#X obj 52 755 spigot 0;
#X obj 107 755 tgl 15 0 empty empty empty 17 7 0 10 -262144 -1 -1 0
1;
#X msg 412 315 /monome/grid/led/map 0 0 0 0 24 0 0 24 0 0;
#X msg 412 335 /monome/grid/led/map 0 0 0 0 24 0 0 24 24 12;
#X msg 412 355 /monome/grid/led/map 0 0 112 24 12 6 12 24 112 0;
#X msg 412 375 /monome/grid/led/map 0 0 0 0 126 0 126 0 0 0;
#X msg 412 395 /monome/grid/led/map 0 0 14 24 48 96 48 24 14 0;
#X msg 412 415 /monome/grid/led/map 0 0 60 102 96 48 24 0 24 0;
#X obj 412 85 sel 48 49 50 51 52 53 54 55 56 57 58 59 60 61 62 63;
#X obj 32 85 sel 32 33 34 35 36 37 38 39 40 41 42 43 44 45 46 47;
#X msg 32 315 /monome/grid/led/map 0 0 0 102 60 255 60 102 0 0;
#X msg 32 115 /monome/grid/led/map 0 0 0 0 0 0 0 0 0 0;
#X msg 32 135 /monome/grid/led/map 0 0 24 24 24 24 0 0 24 0;
#X msg 32 155 /monome/grid/led/map 0 0 102 102 102 0 0 0 0 0;
#X msg 32 175 /monome/grid/led/map 0 0 102 102 255 102 255 102 102
0;
#X msg 32 195 /monome/grid/led/map 0 0 24 124 6 60 96 62 24 0;
#X msg 32 215 /monome/grid/led/map 0 0 70 102 48 24 12 102 98 0;
#X msg 32 235 /monome/grid/led/map 0 0 60 102 60 28 230 102 252 0;
#X msg 32 255 /monome/grid/led/map 0 0 96 48 24 0 0 0 0 0;
#X msg 32 275 /monome/grid/led/map 0 0 48 24 12 12 12 24 48 0;
#X msg 32 295 /monome/grid/led/map 0 0 12 24 48 48 48 24 12 0;
#X msg 32 335 /monome/grid/led/map 0 0 0 24 24 126 24 24 0 0;
#X msg 32 355 /monome/grid/led/map 0 0 0 0 0 0 0 24 24 12;
#X msg 32 375 /monome/grid/led/map 0 0 0 0 0 126 0 0 0 0;
#X msg 32 395 /monome/grid/led/map 0 0 0 0 0 0 0 24 24 0;
#X msg 32 415 /monome/grid/led/map 0 0 0 192 96 48 24 12 6 0;
#X obj 32 445 s 33-47;
#X obj 32 35 spigot 0;
#X obj 87 35 tgl 15 0 empty empty empty 17 7 0 10 -262144 -1 -1 1 1
;
#X msg 446 788 /monome/grid/led/map 0 0 \$1 \$2 \$3 \$4 \$5 \$6 \$7
\$8;
#X obj 752 115 textfile;
#X obj 752 139 text;
#X msg 752 85 read petscii.txt;
#X obj 792 139 until;
#X text 736 162 some things 2 check out;
#X obj 412 698 list;
#X msg 633 614 60 102 96 48 24 0 24 0 126 6 62 96 96 102 60 0 60 102
102 124 96 102 60 0;
#X floatatom 632 654 5 0 16 0 - - -, f 5;
#X obj 446 758 list split 8;
#X obj 366 788 print baby;
#X text 673 654 click the above list \, then scroll through the list!
the number in the box = <list length> - 8;
#X obj 412 668 t b f;
#X obj 493 473 bng 15 250 50 0 empty empty empty 0 -6 0 8 -262144 -1
-1;
#X text 508 471 clear;
#X obj 523 535 t l;
#X obj 433 518 list prepend;
#X msg 32 515 \$3 \$4 \$5 \$6 \$7 \$8 \$9 \$10;
#X obj 427 548 list length;
#X floatatom 362 655 5 0 0 0 - - -, f 5;
#X obj 412 608 min;
#X text 362 539 scroll;
#X floatatom 457 578 5 0 0 0 - - -, f 5;
#X obj 433 488 t b b;
#X obj 412 638 max 0;
#X text 52 775 key display is not persistent when this is active;
#X obj 427 578 - 8;
#X floatatom 364 559 5 0 0 0 - - -, f 5;
#X floatatom 447 608 5 0 0 0 - - -, f 5;
#X text 482 608 max scrolling distance;
#N canvas 245 14 944 828 horizontal-transpose 1;
#X obj 12 792 outlet;
#X msg 12 72 \$1;
#X obj 12 102 horizontal-transpose;
#X obj 192 102 horizontal-transpose;
#X msg 192 72 \$2;
#X obj 12 192 pack f f f f f f f f;
#X obj 102 42 t b f;
#X obj 372 102 horizontal-transpose;
#X obj 552 102 horizontal-transpose;
#X msg 12 222 /monome/grid/led/map 0 0 \$1 \$2 \$3 \$4 \$5 \$6 \$7
\$8;
#X msg 372 72 \$3;
#X msg 552 72 \$4;
#X obj 32 162 horizontal-transpose;
#X obj 212 162 horizontal-transpose;
#X obj 392 162 horizontal-transpose;
#X obj 572 162 horizontal-transpose;
#X msg 32 132 \$5;
#X msg 212 132 \$6;
#X msg 392 132 \$7;
#X msg 572 132 \$8;
#X obj 12 12 inlet;
#X obj 12 42 t l;
#X obj 102 12 inlet;
#X obj 281 365 t l;
#X obj 171 348 list prepend;
#X obj 171 288 bng 15 250 50 0 empty empty empty 0 -6 0 8 -262144 -1
-1;
#X text 186 286 clear;
#X obj 171 318 t b b;
#X obj 192 378 list length;
#X floatatom 222 408 5 0 0 0 - - -, f 5;
#X obj 688 350 pow 2;
#X obj 669 287 t b b f;
#X msg 688 320 2;
#X obj 619 410 *;
#X obj 835 330 t b b f;
#X msg 854 360 0.5;
#X obj 854 390 pow 2;
#X obj 839 420 *;
#X obj 619 450 spigot 0;
#X obj 839 450 spigot 0;
#X obj 796 270 moses 0;
#X obj 835 300 * -1;
#X obj 719 450 expr $f1 * -1 + 1;
#X msg 816 360 0;
#X msg 776 360 1;
#X obj 619 330 list;
#X obj 619 350 list trim;
#X obj 899 450 t f;
#X obj 679 450 t f;
#X msg 619 380 \$1;
#X obj 619 480 t f;
#X floatatom 558 230 5 0 0 0 - - -, f 5;
#X obj 619 260 bng 15 250 50 0 empty empty empty 17 7 0 10 -262144
-1 -1;
#X obj 489 370 list split 0;
#X obj 523 400 list split 1;
#X obj 523 430 print billj;
#X obj 393 289 s key-disable;
#X obj 393 269 tgl 15 0 empty empty empty 17 7 0 10 -262144 -1 -1 0
1;
#X obj 90 363 until;
#X obj 90 391 f;
#X obj 90 421 + 1;
#X obj 90 488 sel 0;
#X obj 90 333 bng 15 250 50 0 empty empty empty 17 7 0 10 -262144 -1
-1;
#X obj 90 451 % 8;
#X obj 150 438 list;
#X obj 150 468 list split 0;
#X obj 184 498 list split 1;
#X obj 150 408 t b f;
#X floatatom 113 287 5 0 0 0 - - -, f 5;
#X floatatom 154 597 5 0 0 0 - - -, f 5;
#X text 191 427 all the maps are collecting here;
#X obj 814 662 > 127;
#X floatatom 769 622 5 0 0 0 - - -, f 5;
#X obj 769 682 spigot 0;
#X floatatom 769 713 5 0 0 0 - - -, f 5;
#X obj 769 662 t f f;
#X obj 609 682 spigot 0;
#X obj 609 662 t f f;
#X obj 654 662 % 2;
#X floatatom 609 622 5 0 0 0 - - -, f 5;
#X floatatom 609 712 5 0 0 0 - - -, f 5;
#X obj 204 528 spigot 0;
#X obj 424 528 spigot 0;
#X obj 304 528 expr $f1 * -1 + 1;
#X obj 484 528 t f;
#X obj 264 528 t f;
#X msg 386 360 0;
#X msg 346 360 1;
#X obj 204 558 * 2;
#X obj 424 558 * 0.5;
#X obj 184 588 f;
#X connect 1 0 2 0;
#X connect 2 0 5 0;
#X connect 3 0 5 1;
#X connect 4 0 3 0;
#X connect 5 0 9 0;
#X connect 6 0 5 0;
#X connect 6 1 2 1;
#X connect 6 1 3 1;
#X connect 6 1 7 1;
#X connect 6 1 8 1;
#X connect 6 1 12 1;
#X connect 6 1 13 1;
#X connect 6 1 14 1;
#X connect 6 1 15 1;
#X connect 7 0 5 2;
#X connect 8 0 5 3;
#X connect 9 0 0 0;
#X connect 10 0 7 0;
#X connect 11 0 8 0;
#X connect 12 0 5 4;
#X connect 13 0 5 5;
#X connect 14 0 5 6;
#X connect 15 0 5 7;
#X connect 16 0 12 0;
#X connect 17 0 13 0;
#X connect 18 0 14 0;
#X connect 19 0 15 0;
#X connect 20 0 21 0;
#X connect 20 0 24 0;
#X connect 21 0 1 0;
#X connect 21 0 4 0;
#X connect 21 0 10 0;
#X connect 21 0 11 0;
#X connect 21 0 16 0;
#X connect 21 0 17 0;
#X connect 21 0 18 0;
#X connect 21 0 19 0;
#X connect 22 0 6 0;
#X connect 23 0 24 1;
#X connect 24 0 23 0;
#X connect 24 0 28 0;
#X connect 24 0 64 1;
#X connect 25 0 27 0;
#X connect 27 0 24 0;
#X connect 27 1 24 1;
#X connect 28 0 29 0;
#X connect 30 0 33 1;
#X connect 31 0 45 0;
#X connect 31 1 32 0;
#X connect 31 2 30 1;
#X connect 32 0 30 0;
#X connect 33 0 38 0;
#X connect 34 0 45 0;
#X connect 34 1 35 0;
#X connect 34 2 36 1;
#X connect 35 0 36 0;
#X connect 36 0 37 1;
#X connect 37 0 39 0;
#X connect 38 0 50 0;
#X connect 39 0 50 0;
#X connect 40 0 44 0;
#X connect 40 0 31 0;
#X connect 40 1 43 0;
#X connect 40 1 41 0;
#X connect 41 0 34 0;
#X connect 42 0 47 0;
#X connect 43 0 48 0;
#X connect 44 0 48 0;
#X connect 45 0 46 0;
#X connect 45 0 53 0;
#X connect 46 0 49 0;
#X connect 47 0 39 1;
#X connect 48 0 38 1;
#X connect 48 0 42 0;
#X connect 49 0 33 0;
#X connect 49 0 37 0;
#X connect 51 0 53 1;
#X connect 51 0 52 0;
#X connect 52 0 45 0;
#X connect 53 1 54 0;
#X connect 54 0 55 0;
#X connect 57 0 56 0;
#X connect 58 0 59 0;
#X connect 59 0 60 0;
#X connect 59 0 67 0;
#X connect 60 0 63 0;
#X connect 61 0 58 1;
#X connect 62 0 58 0;
#X connect 63 0 59 1;
#X connect 63 0 61 0;
#X connect 64 0 65 0;
#X connect 65 1 66 0;
#X connect 66 0 69 0;
#X connect 66 0 81 0;
#X connect 66 0 82 0;
#X connect 67 0 64 0;
#X connect 67 1 65 1;
#X connect 68 0 67 0;
#X connect 71 0 73 1;
#X connect 72 0 75 0;
#X connect 73 0 74 0;
#X connect 75 0 73 0;
#X connect 75 1 71 0;
#X connect 76 0 80 0;
#X connect 77 0 76 0;
#X connect 77 1 78 0;
#X connect 78 0 76 1;
#X connect 79 0 77 0;
#X connect 81 0 88 0;
#X connect 82 0 89 0;
#X connect 83 0 84 0;
#X connect 84 0 82 1;
#X connect 85 0 81 1;
#X connect 85 0 83 0;
#X connect 86 0 85 0;
#X connect 87 0 85 0;
#X restore 52 665 pd horizontal-transpose;
#X floatatom 187 645 5 0 0 0 - - -, f 5;
#X msg 32 545 /monome/grid/led/map 0 0 \$1 \$2 \$3 \$4 \$5 \$6 \$7
\$8;
#X obj 412 728 list split 0;
#X obj 87 13 r key-disable;
#X text 790 189 -- nonlocal shared value (named variable);
#X obj 752 189 value;
#X text 227 516 connect to list prepend ->;
#X obj 32 595 spigot 0;
#X obj 87 595 tgl 15 0 empty empty empty 17 7 0 10 -262144 -1 -1 1
1;
#X obj 752 214 array;
#X connect 10 0 75 0;
#X connect 32 0 36 0;
#X connect 33 0 36 0;
#X connect 34 0 36 0;
#X connect 37 0 94 0;
#X connect 38 0 94 0;
#X connect 39 0 36 0;
#X connect 40 0 36 0;
#X connect 41 0 36 0;
#X connect 42 0 36 0;
#X connect 43 0 36 0;
#X connect 44 0 36 0;
#X connect 45 0 36 0;
#X connect 46 0 47 0;
#X connect 47 0 48 0;
#X connect 48 0 35 0;
#X connect 49 0 48 1;
#X connect 50 0 36 0;
#X connect 51 0 36 0;
#X connect 52 0 36 0;
#X connect 53 0 36 0;
#X connect 54 0 36 0;
#X connect 55 0 36 0;
#X connect 56 0 32 0;
#X connect 56 1 33 0;
#X connect 56 2 34 0;
#X connect 56 3 39 0;
#X connect 56 4 40 0;
#X connect 56 5 41 0;
#X connect 56 6 42 0;
#X connect 56 7 43 0;
#X connect 56 8 44 0;
#X connect 56 9 45 0;
#X connect 56 10 50 0;
#X connect 56 11 51 0;
#X connect 56 12 52 0;
#X connect 56 13 53 0;
#X connect 56 14 54 0;
#X connect 56 15 55 0;
#X connect 57 0 59 0;
#X connect 57 1 60 0;
#X connect 57 2 61 0;
#X connect 57 3 62 0;
#X connect 57 4 63 0;
#X connect 57 5 64 0;
#X connect 57 6 65 0;
#X connect 57 7 66 0;
#X connect 57 8 67 0;
#X connect 57 9 68 0;
#X connect 57 10 58 0;
#X connect 57 11 69 0;
#X connect 57 12 70 0;
#X connect 57 13 71 0;
#X connect 57 14 72 0;
#X connect 57 15 73 0;
#X connect 58 0 74 0;
#X connect 59 0 74 0;
#X connect 60 0 74 0;
#X connect 61 0 74 0;
#X connect 62 0 74 0;
#X connect 63 0 74 0;
#X connect 64 0 74 0;
#X connect 65 0 74 0;
#X connect 66 0 74 0;
#X connect 67 0 74 0;
#X connect 68 0 74 0;
#X connect 69 0 74 0;
#X connect 70 0 74 0;
#X connect 71 0 74 0;
#X connect 72 0 74 0;
#X connect 73 0 74 0;
#X connect 75 0 57 0;
#X connect 75 0 56 0;
#X connect 76 0 75 1;
#X connect 77 0 35 0;
#X connect 80 0 78 0;
#X connect 83 0 110 0;
#X connect 84 0 83 1;
#X connect 85 0 89 0;
#X connect 86 0 77 0;
#X connect 86 0 87 0;
#X connect 89 0 83 0;
#X connect 89 1 110 1;
#X connect 90 0 100 0;
#X connect 92 0 93 1;
#X connect 93 0 92 0;
#X connect 93 0 83 1;
#X connect 93 0 95 0;
#X connect 94 0 107 0;
#X connect 94 0 109 0;
#X connect 95 0 99 0;
#X connect 95 0 103 0;
#X connect 97 0 101 0;
#X connect 100 0 93 0;
#X connect 100 1 93 1;
#X connect 101 0 89 0;
#X connect 101 0 96 0;
#X connect 103 0 97 1;
#X connect 103 0 105 0;
#X connect 104 0 97 0;
#X connect 107 0 35 0;
#X connect 108 0 107 1;
#X connect 109 0 115 0;
#X connect 110 1 86 0;
#X connect 111 0 76 0;
#X connect 115 0 35 0;
#X connect 116 0 115 1;
#X restore 12 42 pd petscii-character-maps;
#X obj 372 89 routeOSC /monome/grid/key;
#X obj 372 12 tgl 15 0 empty empty empty 17 7 0 10 -262144 -1 -1 0
1;
#X msg 372 32 /monome/grid/led/all \$1;
#X obj 332 106 print;
#X msg 492 119 /monome/grid/led/set \$1 \$2 \$3;
#X obj 372 119 unpack f f f;
#X obj 441 149 sel 1;
#X obj 372 199 pack f f f;
#X msg 441 169 1;
#X obj 12 72 routeOSC /monome/grid/led/map;
#X msg 12 102 \$3 \$4 \$5 \$6 \$7 \$8 \$9 \$10;
#X obj 12 192 unpack f f f f f f f f;
#X obj 12 222 f;
#X obj 37 222 f;
#X obj 62 222 f;
#X obj 87 222 f;
#X obj 112 222 f;
#X obj 137 222 f;
#X obj 162 222 f;
#X obj 187 222 f;
#X floatatom 12 242 3 0 255 0 - - -, f 3;
#X floatatom 37 242 3 0 255 0 - - -, f 3;
#X floatatom 62 242 3 0 255 0 - - -, f 3;
#X floatatom 87 242 3 0 255 0 - - -, f 3;
#X floatatom 112 242 3 0 255 0 - - -, f 3;
#X floatatom 137 242 3 0 255 0 - - -, f 3;
#X floatatom 162 242 3 0 255 0 - - -, f 3;
#X floatatom 187 242 3 0 255 0 - - -, f 3;
#X msg 12 322 /monome/grid/led/map 0 0 \$1 \$2 \$3 \$4 \$5 \$6 \$7
\$8;
#X obj 12 292 pack f f f f f f f f;
#X msg 187 292 bang;
#X msg 22 152 /monome/grid/led/map 0 0 \$1 \$2 \$3 \$4 \$5 \$6 \$7
\$8;
#X obj 12 372 print;
#X obj 492 149 spigot 0;
#X obj 547 149 tgl 15 0 empty empty empty 17 7 0 10 -262144 -1 -1 0
1;
#N canvas 220 242 1146 533 grid-feedback 0;
#X obj 11 91 tgl 15 0 empty empty empty 17 7 0 10 -262144 -1 -1 0 1
;
#X obj 31 91 tgl 15 0 empty empty empty 17 7 0 10 -262144 -1 -1 0 1
;
#X obj 51 91 tgl 15 0 empty empty empty 17 7 0 10 -262144 -1 -1 0 1
;
#X obj 71 91 tgl 15 0 empty empty empty 17 7 0 10 -262144 -1 -1 0 1
;
#X obj 91 91 tgl 15 0 empty empty empty 17 7 0 10 -262144 -1 -1 0 1
;
#X obj 111 91 tgl 15 0 empty empty empty 17 7 0 10 -262144 -1 -1 0
1;
#X obj 131 91 tgl 15 0 empty empty empty 17 7 0 10 -262144 -1 -1 0
1;
#X obj 151 91 tgl 15 0 empty empty empty 17 7 0 10 -262144 -1 -1 0
1;
#X obj 11 111 tgl 15 0 empty empty empty 17 7 0 10 -262144 -1 -1 0
1;
#X obj 31 111 tgl 15 0 empty empty empty 17 7 0 10 -262144 -1 -1 0
1;
#X obj 51 111 tgl 15 0 empty empty empty 17 7 0 10 -262144 -1 -1 0
1;
#X obj 71 111 tgl 15 0 empty empty empty 17 7 0 10 -262144 -1 -1 0
1;
#X obj 91 111 tgl 15 0 empty empty empty 17 7 0 10 -262144 -1 -1 0
1;
#X obj 111 111 tgl 15 0 empty empty empty 17 7 0 10 -262144 -1 -1 0
1;
#X obj 131 111 tgl 15 0 empty empty empty 17 7 0 10 -262144 -1 -1 0
1;
#X obj 151 111 tgl 15 0 empty empty empty 17 7 0 10 -262144 -1 -1 0
1;
#X obj 11 131 tgl 15 0 empty empty empty 17 7 0 10 -262144 -1 -1 0
1;
#X obj 31 131 tgl 15 0 empty empty empty 17 7 0 10 -262144 -1 -1 0
1;
#X obj 51 131 tgl 15 0 empty empty empty 17 7 0 10 -262144 -1 -1 0
1;
#X obj 71 131 tgl 15 0 empty empty empty 17 7 0 10 -262144 -1 -1 0
1;
#X obj 91 131 tgl 15 0 empty empty empty 17 7 0 10 -262144 -1 -1 0
1;
#X obj 111 131 tgl 15 0 empty empty empty 17 7 0 10 -262144 -1 -1 0
1;
#X obj 131 131 tgl 15 0 empty empty empty 17 7 0 10 -262144 -1 -1 0
1;
#X obj 151 131 tgl 15 0 empty empty empty 17 7 0 10 -262144 -1 -1 0
1;
#X obj 11 151 tgl 15 0 empty empty empty 17 7 0 10 -262144 -1 -1 0
1;
#X obj 31 151 tgl 15 0 empty empty empty 17 7 0 10 -262144 -1 -1 0
1;
#X obj 51 151 tgl 15 0 empty empty empty 17 7 0 10 -262144 -1 -1 0
1;
#X obj 71 151 tgl 15 0 empty empty empty 17 7 0 10 -262144 -1 -1 0
1;
#X obj 91 151 tgl 15 0 empty empty empty 17 7 0 10 -262144 -1 -1 0
1;
#X obj 111 151 tgl 15 0 empty empty empty 17 7 0 10 -262144 -1 -1 0
1;
#X obj 131 151 tgl 15 0 empty empty empty 17 7 0 10 -262144 -1 -1 0
1;
#X obj 151 151 tgl 15 0 empty empty empty 17 7 0 10 -262144 -1 -1 0
1;
#X obj 11 171 tgl 15 0 empty empty empty 17 7 0 10 -262144 -1 -1 0
1;
#X obj 31 171 tgl 15 0 empty empty empty 17 7 0 10 -262144 -1 -1 0
1;
#X obj 51 171 tgl 15 0 empty empty empty 17 7 0 10 -262144 -1 -1 0
1;
#X obj 71 171 tgl 15 0 empty empty empty 17 7 0 10 -262144 -1 -1 0
1;
#X obj 91 171 tgl 15 0 empty empty empty 17 7 0 10 -262144 -1 -1 0
1;
#X obj 111 171 tgl 15 0 empty empty empty 17 7 0 10 -262144 -1 -1 0
1;
#X obj 131 171 tgl 15 0 empty empty empty 17 7 0 10 -262144 -1 -1 0
1;
#X obj 151 171 tgl 15 0 empty empty empty 17 7 0 10 -262144 -1 -1 0
1;
#X obj 11 191 tgl 15 0 empty empty empty 17 7 0 10 -262144 -1 -1 0
1;
#X obj 31 191 tgl 15 0 empty empty empty 17 7 0 10 -262144 -1 -1 0
1;
#X obj 51 191 tgl 15 0 empty empty empty 17 7 0 10 -262144 -1 -1 0
1;
#X obj 71 191 tgl 15 0 empty empty empty 17 7 0 10 -262144 -1 -1 0
1;
#X obj 91 191 tgl 15 0 empty empty empty 17 7 0 10 -262144 -1 -1 0
1;
#X obj 111 191 tgl 15 0 empty empty empty 17 7 0 10 -262144 -1 -1 0
1;
#X obj 131 191 tgl 15 0 empty empty empty 17 7 0 10 -262144 -1 -1 0
1;
#X obj 151 191 tgl 15 0 empty empty empty 17 7 0 10 -262144 -1 -1 0
1;
#X obj 11 211 tgl 15 0 empty empty empty 17 7 0 10 -262144 -1 -1 0
1;
#X obj 31 211 tgl 15 0 empty empty empty 17 7 0 10 -262144 -1 -1 0
1;
#X obj 51 211 tgl 15 0 empty empty empty 17 7 0 10 -262144 -1 -1 0
1;
#X obj 71 211 tgl 15 0 empty empty empty 17 7 0 10 -262144 -1 -1 0
1;
#X obj 91 211 tgl 15 0 empty empty empty 17 7 0 10 -262144 -1 -1 0
1;
#X obj 111 211 tgl 15 0 empty empty empty 17 7 0 10 -262144 -1 -1 0
1;
#X obj 131 211 tgl 15 0 empty empty empty 17 7 0 10 -262144 -1 -1 0
1;
#X obj 151 211 tgl 15 0 empty empty empty 17 7 0 10 -262144 -1 -1 0
1;
#X obj 11 231 tgl 15 0 empty empty empty 17 7 0 10 -262144 -1 -1 0
1;
#X obj 31 231 tgl 15 0 empty empty empty 17 7 0 10 -262144 -1 -1 0
1;
#X obj 51 231 tgl 15 0 empty empty empty 17 7 0 10 -262144 -1 -1 0
1;
#X obj 71 231 tgl 15 0 empty empty empty 17 7 0 10 -262144 -1 -1 0
1;
#X obj 91 231 tgl 15 0 empty empty empty 17 7 0 10 -262144 -1 -1 0
1;
#X obj 111 231 tgl 15 0 empty empty empty 17 7 0 10 -262144 -1 -1 0
1;
#X obj 131 231 tgl 15 0 empty empty empty 17 7 0 10 -262144 -1 -1 0
1;
#X obj 151 231 tgl 15 0 empty empty empty 17 7 0 10 -262144 -1 -1 0
1;
#X obj 248 367 pack f f f f f f f f;
#X msg 221 337 bang;
#X obj 198 397 print;
#X obj 221 287 t b f;
#X obj 261 287 t b f;
#X obj 301 287 t b f;
#X obj 341 287 t b f;
#X obj 381 287 t b f;
#X obj 421 287 t b f;
#X obj 461 287 t b f;
#X obj 501 287 t b f;
#X msg 248 397 /monome/grid/led/map 0 0 \$1 \$2 \$3 \$4 \$5 \$6 \$7
\$8;
#X obj 248 427 outlet;
#X obj 422 42 routeOSC /monome/grid/key;
#X obj 422 12 inlet;
#X msg 422 72 \$2 \$1 \$3;
#X obj 622 351 dec-bin, f 23;
#X obj 622 381 tgl 15 0 empty empty empty 17 7 0 10 -262144 -1 -1 0
1;
#X obj 642 381 tgl 15 0 empty empty empty 17 7 0 10 -262144 -1 -1 0
1;
#X obj 662 381 tgl 15 0 empty empty empty 17 7 0 10 -262144 -1 -1 0
1;
#X obj 682 381 tgl 15 0 empty empty empty 17 7 0 10 -262144 -1 -1 0
1;
#X obj 702 381 tgl 15 0 empty empty empty 17 7 0 10 -262144 -1 -1 0
1;
#X obj 722 381 tgl 15 0 empty empty empty 17 7 0 10 -262144 -1 -1 0
1;
#X obj 742 381 tgl 15 0 empty empty empty 17 7 0 10 -262144 -1 -1 0
1;
#X obj 762 381 tgl 15 0 empty empty empty 17 7 0 10 -262144 -1 -1 0
1;
#X obj 622 411 bin-dec, f 23;
#X floatatom 622 321 5 0 255 0 - - -, f 5;
#X floatatom 622 443 5 0 0 0 - - -, f 5;
#X obj 221 106 bin-dec, f 16;
#X obj 261 126 bin-dec, f 16;
#X obj 301 146 bin-dec, f 16;
#X obj 341 166 bin-dec, f 16;
#X obj 381 186 bin-dec, f 16;
#X obj 421 206 bin-dec, f 16;
#X obj 461 226 bin-dec, f 16;
#X obj 501 246 bin-dec, f 16;
#X floatatom 181 91 5 0 255 0 - - -, f 5;
#X floatatom 181 111 5 0 255 0 - - -, f 5;
#X floatatom 181 131 5 0 255 0 - - -, f 5;
#X floatatom 181 151 5 0 255 0 - - -, f 5;
#X floatatom 181 171 5 0 255 0 - - -, f 5;
#X floatatom 181 191 5 0 255 0 - - -, f 5;
#X floatatom 181 211 5 0 255 0 - - -, f 5;
#X floatatom 181 231 5 0 255 0 - - -, f 5;
#X obj 221 74 dec-bin, f 16;
#X obj 422 102 unpack f f f;
#X floatatom 422 129 5 0 255 0 - - -, f 5;
#X floatatom 456 129 5 0 255 0 - - -, f 5;
#X floatatom 491 129 5 0 255 0 - - -, f 5;
#X msg 622 71 \$3 \$4 \$5 \$6 \$7 \$8 \$9 \$10;
#X obj 819 291 grid;
#X msg 622 42 /monome/grid/led/map 0 0 102 102 255 102 255 102 102
0;
#X obj 792 141 *;
#X obj 822 141 *;
#X obj 819 261 pack f f f f f f f f;
#X msg 792 231 bang;
#X obj 792 181 t b f;
#X obj 832 181 t b f;
#X obj 872 181 t b f;
#X obj 912 181 t b f;
#X obj 952 181 t b f;
#X obj 992 181 t b f;
#X obj 1032 181 t b f;
#X obj 1072 181 t b f;
#X obj 852 141 *;
#X obj 882 141 *;
#X obj 912 141 *;
#X obj 942 141 *;
#X obj 972 141 *;
#X obj 1002 141 *;
#X obj 792 101 unpack f f f f f f f f;
#X obj 945 73 f;
#X msg 994 28 \$1 2;
#X obj 994 58 *;
#X floatatom 632 141 5 0 255 0 - - -, f 5;
#X obj 665 160 > 128;
#X floatatom 632 211 5 0 255 0 - - -, f 5;
#X obj 632 182 spigot;
#X connect 0 0 92 0;
#X connect 1 0 92 1;
#X connect 2 0 92 2;
#X connect 3 0 92 3;
#X connect 4 0 92 4;
#X connect 5 0 92 5;
#X connect 6 0 92 6;
#X connect 7 0 92 7;
#X connect 8 0 93 0;
#X connect 9 0 93 1;
#X connect 10 0 93 2;
#X connect 11 0 93 3;
#X connect 12 0 93 4;
#X connect 13 0 93 5;
#X connect 14 0 93 6;
#X connect 15 0 93 7;
#X connect 16 0 94 0;
#X connect 17 0 94 1;
#X connect 18 0 94 2;
#X connect 19 0 94 3;
#X connect 20 0 94 4;
#X connect 21 0 94 5;
#X connect 22 0 94 6;
#X connect 23 0 94 7;
#X connect 24 0 95 0;
#X connect 25 0 95 1;
#X connect 26 0 95 2;
#X connect 27 0 95 3;
#X connect 28 0 95 4;
#X connect 29 0 95 5;
#X connect 30 0 95 6;
#X connect 31 0 95 7;
#X connect 32 0 96 0;
#X connect 33 0 96 1;
#X connect 34 0 96 2;
#X connect 35 0 96 3;
#X connect 36 0 96 4;
#X connect 37 0 96 5;
#X connect 38 0 96 6;
#X connect 39 0 96 7;
#X connect 40 0 97 0;
#X connect 41 0 97 1;
#X connect 42 0 97 2;
#X connect 43 0 97 3;
#X connect 44 0 97 4;
#X connect 45 0 97 5;
#X connect 46 0 97 6;
#X connect 47 0 97 7;
#X connect 48 0 98 0;
#X connect 49 0 98 1;
#X connect 50 0 98 2;
#X connect 51 0 98 3;
#X connect 52 0 98 4;
#X connect 53 0 98 5;
#X connect 54 0 98 6;
#X connect 55 0 98 7;
#X connect 56 0 99 0;
#X connect 57 0 99 1;
#X connect 58 0 99 2;
#X connect 59 0 99 3;
#X connect 60 0 99 4;
#X connect 61 0 99 5;
#X connect 62 0 99 6;
#X connect 63 0 99 7;
#X connect 64 0 66 0;
#X connect 64 0 75 0;
#X connect 65 0 64 0;
#X connect 67 0 65 0;
#X connect 67 1 64 0;
#X connect 68 0 65 0;
#X connect 68 1 64 1;
#X connect 69 0 65 0;
#X connect 69 1 64 2;
#X connect 70 0 65 0;
#X connect 70 1 64 3;
#X connect 71 0 65 0;
#X connect 71 1 64 4;
#X connect 72 0 65 0;
#X connect 72 1 64 5;
#X connect 73 0 65 0;
#X connect 73 1 64 6;
#X connect 74 0 65 0;
#X connect 74 1 64 7;
#X connect 75 0 76 0;
#X connect 77 0 79 0;
#X connect 78 0 77 0;
#X connect 79 0 109 0;
#X connect 80 0 81 0;
#X connect 80 1 82 0;
#X connect 80 2 83 0;
#X connect 80 3 84 0;
#X connect 80 4 85 0;
#X connect 80 5 86 0;
#X connect 80 6 87 0;
#X connect 80 7 88 0;
#X connect 81 0 89 0;
#X connect 82 0 89 1;
#X connect 83 0 89 2;
#X connect 84 0 89 3;
#X connect 85 0 89 4;
#X connect 86 0 89 5;
#X connect 87 0 89 6;
#X connect 88 0 89 7;
#X connect 89 0 91 0;
#X connect 90 0 80 0;
#X connect 92 0 67 0;
#X connect 92 0 100 0;
#X connect 93 0 68 0;
#X connect 93 0 101 0;
#X connect 94 0 69 0;
#X connect 94 0 102 0;
#X connect 95 0 70 0;
#X connect 95 0 103 0;
#X connect 96 0 71 0;
#X connect 96 0 104 0;
#X connect 97 0 72 0;
#X connect 97 0 105 0;
#X connect 98 0 73 0;
#X connect 98 0 106 0;
#X connect 99 0 74 0;
#X connect 99 0 107 0;
#X connect 108 0 92 0;
#X connect 108 0 0 0;
#X connect 108 1 92 1;
#X connect 108 1 1 0;
#X connect 108 2 92 2;
#X connect 108 2 2 0;
#X connect 108 3 92 3;
#X connect 108 3 3 0;
#X connect 108 4 92 4;
#X connect 108 4 4 0;
#X connect 108 5 92 5;
#X connect 108 5 5 0;
#X connect 108 6 92 6;
#X connect 108 6 6 0;
#X connect 108 7 92 7;
#X connect 108 7 7 0;
#X connect 109 0 110 0;
#X connect 109 1 111 0;
#X connect 109 2 112 0;
#X connect 113 0 134 0;
#X connect 115 0 113 0;
#X connect 116 0 120 0;
#X connect 117 0 121 0;
#X connect 118 0 114 0;
#X connect 119 0 118 0;
#X connect 120 0 119 0;
#X connect 120 1 118 0;
#X connect 121 0 119 0;
#X connect 121 1 118 1;
#X connect 122 0 119 0;
#X connect 122 1 118 2;
#X connect 123 0 119 0;
#X connect 123 1 118 3;
#X connect 124 0 119 0;
#X connect 124 1 118 4;
#X connect 125 0 119 0;
#X connect 125 1 118 5;
#X connect 126 0 119 0;
#X connect 126 1 118 6;
#X connect 127 0 119 0;
#X connect 127 1 118 7;
#X connect 128 0 122 0;
#X connect 129 0 123 0;
#X connect 130 0 124 0;
#X connect 131 0 125 0;
#X connect 132 0 126 0;
#X connect 133 0 127 0;
#X connect 134 0 116 1;
#X connect 134 1 117 1;
#X connect 134 2 128 1;
#X connect 134 3 129 1;
#X connect 134 4 130 1;
#X connect 134 5 131 1;
#X connect 134 6 132 1;
#X connect 134 7 133 1;
#X connect 135 0 116 0;
#X connect 135 0 117 0;
#X connect 135 0 128 0;
#X connect 135 0 129 0;
#X connect 135 0 130 0;
#X connect 135 0 131 0;
#X connect 135 0 132 0;
#X connect 135 0 133 0;
#X connect 136 0 137 0;
#X connect 138 0 139 0;
#X connect 138 0 141 0;
#X connect 139 0 141 1;
#X connect 141 0 140 0;
#X restore 552 59 pd grid-feedback;
#X msg 174 388 /monome/grid/led/level/map 0 0 \$1 \$2 \$3 \$4 \$5 \$6
\$7 \$8 \$9 \$10 \$11 \$12 \$13 \$14 \$15 \$16 \$17 \$18 \$19 \$20
\$21 \$22 \$23 \$24 \$25 \$26 \$27 \$28 \$29 \$30 \$31 \$32 \$33 \$34
\$35 \$36 \$37 \$38 \$39 \$40 \$41 \$42 \$43 \$44 \$45 \$46 \$47 \$48
\$49 \$50 \$51 \$52 \$53 \$54 \$55 \$56 \$57 \$58 \$59 \$60 \$61 \$62
\$63 \$64;
#X obj 12 352 spigot 0;
#X obj 67 352 tgl 15 0 empty empty empty 17 7 0 10 -262144 -1 -1 0
1;
#X text 662 59 needs work...;
#X msg 422 330 /monome/grid/led/map 0 0 24 124 6 60 96 62 24 0;
#X msg 382 272 /monome/grid/led/row 0 0 127;
#X connect 0 0 1 0;
#X connect 0 0 3 0;
#X connect 0 0 38 0;
#X connect 2 0 0 0;
#X connect 2 0 12 0;
#X connect 3 0 6 0;
#X connect 3 0 8 0;
#X connect 4 0 5 0;
#X connect 5 0 0 0;
#X connect 7 0 36 0;
#X connect 8 0 10 0;
#X connect 8 1 10 1;
#X connect 8 2 9 0;
#X connect 9 0 11 0;
#X connect 10 0 7 0;
#X connect 11 0 10 2;
#X connect 12 0 13 0;
#X connect 13 0 14 0;
#X connect 13 0 34 0;
#X connect 14 0 15 0;
#X connect 14 1 16 0;
#X connect 14 2 17 0;
#X connect 14 3 18 0;
#X connect 14 4 19 0;
#X connect 14 5 20 0;
#X connect 14 6 21 0;
#X connect 14 7 22 0;
#X connect 15 0 23 0;
#X connect 16 0 24 0;
#X connect 17 0 25 0;
#X connect 18 0 26 0;
#X connect 19 0 27 0;
#X connect 20 0 28 0;
#X connect 21 0 29 0;
#X connect 22 0 30 0;
#X connect 23 0 32 0;
#X connect 24 0 32 1;
#X connect 24 0 33 0;
#X connect 25 0 32 2;
#X connect 25 0 33 0;
#X connect 26 0 32 3;
#X connect 26 0 33 0;
#X connect 27 0 32 4;
#X connect 27 0 33 0;
#X connect 28 0 32 5;
#X connect 28 0 33 0;
#X connect 29 0 32 6;
#X connect 29 0 33 0;
#X connect 30 0 32 7;
#X connect 30 0 33 0;
#X connect 31 0 0 0;
#X connect 31 0 40 0;
#X connect 32 0 31 0;
#X connect 33 0 23 0;
#X connect 34 0 0 0;
#X connect 36 0 0 0;
#X connect 37 0 36 1;
#X connect 38 0 0 0;
#X connect 39 0 0 0;
#X connect 40 0 35 0;
#X connect 41 0 40 1;
#X connect 44 0 0 0;
